<?xml version="1.0" encoding="utf-8"?>
<!-- Generator: Adobe Illustrator 23.0.0, SVG Export Plug-In . SVG Version: 6.00 Build 0)  -->
<svg version="1.1" id="Capa_1" xmlns="http://www.w3.org/2000/svg" xmlns:xlink="http://www.w3.org/1999/xlink" x="0px" y="0px"
	 viewBox="0 0 95.9 97.2" style="enable-background:new 0 0 95.9 97.2;" xml:space="preserve">
<style type="text/css">
	.st0{fill:#FCB63E;}
	.st1{fill:#00AAD3;}
	.st2{fill:#FFFFFF;stroke:#FFFFFF;stroke-width:0.4567;}
	.st3{fill:#00AAD3;stroke:#00AAD3;stroke-width:1.5;stroke-miterlimit:10;}
</style>
<g>
	<path class="st0" d="M6.3,56l-0.1,9.2c0,1-0.5,1.6-1.6,1.5H2.4c-1.1,0-1.6-0.5-1.6-1.6L1,45.8c0-3.3,1.2-6.1,3.6-8.4
		c2.4-2.3,5.2-3.5,8.6-3.5s6.2,1.2,8.6,3.6c2.3,2.4,3.5,5.2,3.5,8.5s-1.2,6.1-3.6,8.4c-1.7,1.7-3.4,2.7-5,3.1l10.1,9.3l-7-0.1
		L9.5,57.4C8.5,57.2,7.5,56.6,6.3,56z M6.4,47.9c0.9,1.5,1.6,2.4,1.9,2.7c1.3,1.3,2.8,2,4.6,2s3.3-0.6,4.7-1.9c1.3-1.3,2-2.8,2-4.8
		s-0.6-3.5-1.9-4.8s-2.8-2-4.6-2c-1.7,0-3.3,0.6-4.7,1.9c-1.3,1.3-2,2.8-2,4.8V47.9z"/>
	<path class="st0" d="M77.3,37.3c2-2,4.5-3,7.4-3c2.9,0,5.4,1,7.4,3.1c2,2,3,4.5,3,7.3L95,65.6c0,1-0.5,1.6-1.6,1.5h-2.2
		c-1.1,0-1.6-0.5-1.6-1.6l0.1-20.9c0-1.5-0.5-2.7-1.5-3.6s-2.1-1.5-3.5-1.5c-1.4,0-2.5,0.5-3.5,1.5c-0.9,0.9-1.5,2.2-1.5,3.6
		l-0.1,20.9c0,1-0.5,1.6-1.6,1.5h-2.2c-1.1,0-1.6-0.5-1.6-1.6l0.1-20.9c0-1.5-0.5-2.7-1.5-3.6c-0.9-0.9-2.1-1.5-3.5-1.5
		c-1.4,0-2.5,0.5-3.5,1.5s-1.5,2.2-1.5,3.6l-0.1,20.9c0,1-0.5,1.6-1.6,1.5h-2.2c-1.1,0-1.6-0.5-1.6-1.6l0.1-20.9
		c0-2.8,1-5.2,3.1-7.3c2-2,4.5-3,7.4-3c2.9,0,5.4,1,7.3,3.1C77,37.2,77.1,37.4,77.3,37.3C77,37.6,77.1,37.5,77.3,37.3z"/>
	<path class="st0" d="M43.1,40.6c2.1-0.3,4.3,0.1,6.5,1.2l2.4-4.5c4.4-0.9,8.4-3.6,10.7-7.9l-1.2-0.5c-2.7,4.9-8.1,7.4-13.6,6.8
		c-0.4-0.1-0.7-0.1-1.2-0.2c-1.2-0.3-2.4-0.6-3.6-1.2c-6.9-3.3-10-11.1-7.2-17.7L34.8,16c-3.1,7.2-0.3,15.7,6.7,19.6
		c-4,0.7-7.3,2.8-10,6c-2.8,3.6-3.8,7.6-3.3,12.1s2.7,8.1,6.2,10.9c3.6,2.8,7.7,3.8,12.2,3.3c3.3-0.4,6.3-1.7,8.9-4L52,60.1
		c-1.8,1.6-3.8,2.5-6,2.7c-3,0.4-5.7-0.4-8.1-2.3c-2.4-1.8-3.8-4.4-4.2-7.4c-0.4-3.1,0.4-5.8,2.2-8.2C37.7,42.4,40.1,41,43.1,40.6z"
		/>
	<path class="st1" d="M42.4,1.6C39,0,35,1.4,33.4,4.7c-1.5,2.9-0.5,6.4,2,8.3c-0.1,0.1-0.1,0.1-0.1,0.2l-0.8,1.7
		c-0.4,0.7-0.1,1.5,0.6,1.7c0.7,0.4,1.5,0.1,1.7-0.6l0.8-1.7c0.1-0.1,0.1-0.1,0.1-0.3c3.1,0.8,6.3-0.6,7.8-3.6
		C47.2,7.2,45.7,3.2,42.4,1.6z"/>
	<path class="st2" d="M35.3,5.6c-1.1,2.3-0.1,5.1,2.2,6.2s5.1,0.1,6.2-2.2c1.1-2.3,0.1-5.1-2.2-6.2C39.1,2.4,36.4,3.3,35.3,5.6z"/>
	<path class="st0" d="M42.4,7.7c-0.3,1.4-2,1.7-2.9,3.2c-0.9-1.5-2.6-1.9-2.9-3.3c-0.4-1.6,1.2-3.2,2.9-1.9
		C41.2,4.5,42.8,6,42.4,7.7z"/>
	<g>
		<path class="st1" d="M83.6,19.2c0,0-2.7-1.5-3.1-1.7c-0.5-0.3-1.2-0.1-1.5,0.4c-0.3,0.4,0,1,0.5,1.2c0.5,0.2,2.1,1.2,2.1,1.2
			l-4.4,6.6c-3.4,3.9-8.9,5-14.1,2.5c-5.3-2.6-8.9-8.1-6.1-12.3l0,0c1.7-2.5,5.4-7.2,5.4-7.2s2.2,1.2,2.6,1.5
			c0.5,0.3,1.1,0.1,1.4-0.3c0.3-0.4,0.1-0.9-0.4-1.2C65.8,9.5,63,8,63,8l-6.8,8.5c-3.4,4.9,0.7,11.2,6.5,14c5.5,2.8,11.3,1.5,15.3-3
			C78.1,27.4,83.6,19.2,83.6,19.2z"/>
	</g>
</g>
<path class="st3" d="M18.5,91.3c-0.5,1.1-1.1,2-1.8,2.8c-0.8,0.8-1.7,1.4-2.7,1.8c-1,0.4-2.2,0.7-3.6,0.7c-1.5,0-2.9-0.3-4.1-0.9
	c-1.2-0.6-2.2-1.4-3-2.4c-0.8-1-1.4-2.2-1.9-3.5C1,88.4,0.8,87,0.8,85.6c0-1.5,0.2-2.9,0.6-4.3c0.4-1.4,1.1-2.6,1.9-3.6
	c0.8-1,1.9-1.9,3.1-2.5c1.2-0.6,2.7-0.9,4.3-0.9c0.9,0,1.9,0.2,2.9,0.5c1,0.3,1.9,0.8,2.8,1.4c0.8,0.6,1.5,1.3,2.1,2.2
	c0.6,0.8,0.9,1.8,0.9,2.8h-0.6c-0.1-1-0.4-1.8-0.9-2.6c-0.5-0.8-1.2-1.4-1.9-2s-1.6-0.9-2.5-1.2c-0.9-0.3-1.8-0.4-2.7-0.4
	c-1.5,0-2.9,0.3-4,0.9c-1.2,0.6-2.1,1.4-2.9,2.4c-0.8,1-1.4,2.1-1.8,3.4c-0.4,1.3-0.6,2.6-0.6,4c0,1.3,0.2,2.6,0.6,3.9
	c0.4,1.2,1,2.4,1.7,3.3c0.8,1,1.7,1.7,2.8,2.3C7.7,95.7,9,96,10.4,96c1.3,0,2.4-0.2,3.4-0.6c1-0.4,1.8-1,2.5-1.7
	c0.7-0.7,1.3-1.6,1.7-2.6c0.4-1,0.7-2.1,0.9-3.3h0.6C19.3,89.1,19,90.2,18.5,91.3z"/>
<path class="st3" d="M25.2,96.1V74.8h0.6v21.3H25.2z"/>
<path class="st3" d="M30.7,77.2h-0.4l3.9-4.3H35L30.7,77.2z M32.1,96.1V80.9h0.6v15.2H32.1z"/>
<path class="st3" d="M49.9,96.1v-10c0-1.5-0.4-2.8-1.3-3.6c-0.8-0.9-2-1.3-3.6-1.3c-0.9,0-1.7,0.2-2.4,0.5S41.4,82.4,41,83
	c-0.5,0.6-0.8,1.3-1.1,2c-0.2,0.8-0.4,1.6-0.4,2.4v8.6H39V80.9h0.6v3.8c0.3-1.3,1-2.4,2-3.1c1-0.7,2.2-1.1,3.5-1.1
	c1.7,0,3,0.5,4,1.5c1,1,1.5,2.3,1.5,4v10.1H49.9z"/>
<path class="st3" d="M57.9,75.1c0,0.2-0.1,0.4-0.2,0.6c-0.2,0.2-0.3,0.2-0.6,0.2c-0.2,0-0.4-0.1-0.6-0.2s-0.2-0.3-0.2-0.6
	c0-0.2,0.1-0.4,0.2-0.6s0.3-0.2,0.6-0.2c0.2,0,0.4,0.1,0.6,0.2C57.8,74.7,57.9,74.8,57.9,75.1z M56.8,96.1V80.9h0.6v15.2H56.8z"/>
<path class="st3" d="M75.4,93.2c-0.3,0.7-0.8,1.3-1.3,1.7c-0.5,0.5-1.2,0.9-1.9,1.1c-0.7,0.3-1.5,0.4-2.4,0.4
	c-1.1,0-2.1-0.2-2.9-0.6c-0.8-0.4-1.5-1-2.1-1.7c-0.6-0.7-1-1.5-1.3-2.4s-0.4-1.9-0.4-2.9c0-1.1,0.1-2.2,0.4-3.2
	c0.3-1,0.7-1.9,1.3-2.7c0.6-0.8,1.3-1.4,2.2-1.8c0.9-0.4,1.9-0.7,3.2-0.7c0.8,0,1.5,0.1,2.1,0.4c0.7,0.2,1.3,0.6,1.8,1
	s0.9,0.9,1.3,1.6c0.3,0.6,0.5,1.3,0.6,2.1h-0.6c-0.2-1.4-0.8-2.5-1.7-3.2c-0.9-0.8-2.1-1.2-3.5-1.2c-1.1,0-2.1,0.2-2.9,0.6
	c-0.8,0.4-1.5,1-2,1.7c-0.5,0.7-0.9,1.5-1.2,2.5c-0.3,0.9-0.4,1.9-0.4,2.9c0,0.9,0.1,1.8,0.4,2.7c0.3,0.8,0.7,1.6,1.2,2.3
	c0.5,0.7,1.2,1.2,1.9,1.6c0.8,0.4,1.7,0.6,2.7,0.6c0.8,0,1.5-0.1,2.1-0.3c0.7-0.2,1.2-0.6,1.7-1c0.5-0.4,0.9-1,1.2-1.6
	c0.3-0.6,0.5-1.3,0.5-2.1h0.6C76,91.8,75.8,92.5,75.4,93.2z"/>
<path class="st3" d="M95.1,88.5c0,1-0.1,2.1-0.4,3c-0.3,1-0.7,1.8-1.3,2.5c-0.6,0.7-1.3,1.3-2.1,1.8c-0.8,0.4-1.8,0.7-3,0.7
	c-1.1,0-2.1-0.2-2.9-0.7c-0.9-0.4-1.6-1-2.1-1.8c-0.6-0.7-1-1.6-1.3-2.5c-0.3-1-0.4-2-0.4-3c0-1,0.1-2,0.4-3c0.3-1,0.7-1.8,1.3-2.5
	c0.6-0.7,1.3-1.3,2.1-1.8c0.8-0.4,1.8-0.7,3-0.7c1.1,0,2.1,0.2,2.9,0.7c0.8,0.4,1.6,1,2.1,1.8c0.6,0.7,1,1.6,1.3,2.5
	C94.9,86.5,95.1,87.5,95.1,88.5z M94.5,88.5c0-0.9-0.1-1.9-0.4-2.8c-0.3-0.9-0.7-1.7-1.2-2.4c-0.5-0.7-1.2-1.2-2-1.6
	c-0.8-0.4-1.7-0.6-2.7-0.6c-1,0-1.9,0.2-2.7,0.6s-1.4,1-2,1.6c-0.5,0.7-0.9,1.5-1.2,2.4c-0.3,0.9-0.4,1.8-0.4,2.8
	c0,1,0.1,1.9,0.4,2.8c0.3,0.9,0.7,1.7,1.2,2.4c0.5,0.7,1.2,1.2,2,1.6s1.7,0.6,2.7,0.6c1,0,1.9-0.2,2.7-0.6c0.8-0.4,1.4-0.9,2-1.6
	c0.5-0.7,0.9-1.5,1.2-2.4C94.3,90.4,94.5,89.5,94.5,88.5z"/>
</svg>
